<?xml version="1.0" encoding="UTF-8" standalone="no"?>
<svg
   version="1.1"
   id="Capa_1"
   x="0px"
   y="0px"
   width="400"
   height="400"
   viewBox="0 0 400 400"
   xml:space="preserve"
   sodipodi:docname="appiconfg.svg"
   inkscape:version="1.1.2 (b8e25be833, 2022-02-05)"
   inkscape:export-filename="/home/thomas/Bilder/logo1.png"
   inkscape:export-xdpi="96"
   inkscape:export-ydpi="96"
   xmlns:inkscape="http://www.inkscape.org/namespaces/inkscape"
   xmlns:sodipodi="http://sodipodi.sourceforge.net/DTD/sodipodi-0.dtd"
   xmlns="http://www.w3.org/2000/svg"
   xmlns:svg="http://www.w3.org/2000/svg"><defs
   id="defs39" /><sodipodi:namedview
   id="namedview37"
   pagecolor="#ffffff"
   bordercolor="#666666"
   borderopacity="1.0"
   inkscape:pageshadow="2"
   inkscape:pageopacity="0.0"
   inkscape:pagecheckerboard="0"
   showgrid="false"
   inkscape:zoom="0.83800918"
   inkscape:cx="382.45404"
   inkscape:cy="191.52535"
   inkscape:window-width="1920"
   inkscape:window-height="1051"
   inkscape:window-x="-9"
   inkscape:window-y="-9"
   inkscape:window-maximized="1"
   inkscape:current-layer="g4"
   height="456px" />
<g
   id="g4"
   inkscape:transform-center-x="-2.4226106"
   inkscape:transform-center-y="-22.996671">
	<path
   d="m 187.7854,167.66449 c -15.93781,0 -28.90418,12.25957 -28.90418,27.32843 0,6.06923 4.09907,15.96415 12.53075,30.25034 5.96422,10.1044 11.83031,18.5296 12.07678,18.88322 l 4.29665,6.15777 4.29646,-6.15759 c 0.24666,-0.3538 6.11311,-8.77882 12.07659,-18.88322 8.43205,-14.28637 12.53074,-24.18111 12.53074,-30.25034 1.9e-4,-15.06904 -12.96618,-27.32861 -28.90379,-27.32861 z m 0,41.30988 c -8.27455,0 -14.98266,-6.34228 -14.98266,-14.16596 0,-7.82368 6.70811,-14.16596 14.98266,-14.16596 8.27455,0 14.98266,6.34228 14.98266,14.16596 0,7.82368 -6.7083,14.16596 -14.98266,14.16596 z"
   id="path2"
   style="fill:#005aff;fill-opacity:1;stroke-width:0.182107" />
<g
   aria-label="Ge"
   id="text3736"
   style="font-size:40px;line-height:1.25;letter-spacing:0px;word-spacing:0px"
   transform="matrix(0.225,0,0,0.225,33.596265,146.96155)"><path
     d="m 140.10378,320.54749 q -39.25781,0 -69.335934,-17.96875 Q 40.885033,284.60999 24.088158,250.03967 7.2912831,215.27405 7.2912831,166.83655 q 0,-49.60938 18.9453129,-85.937502 Q 45.181908,44.37561 78.970971,25.039673 112.76003,5.7037354 156.51003,5.7037354 q 35.54688,0 62.10938,11.7187496 26.5625,11.71875 43.94531,32.617188 3.71094,4.492187 5.66406,10.546875 1.95313,6.054687 1.95313,12.304687 0,9.375 -4.88281,17.578125 -4.6875,8.007813 -12.89063,12.89063 -8.00781,4.6875 -17.38281,4.6875 -9.76563,0 -17.96875,-4.88282 -8.20313,-5.078122 -12.89063,-13.085935 -7.42187,-13.085937 -18.94531,-19.726562 -11.52344,-6.640625 -28.71094,-6.640625 -19.72656,0 -35.54687,10.351562 -15.82031,10.351563 -25.195314,32.42188 -9.179688,22.07031 -9.179688,55.66406 0,33.78906 9.375,56.05469 9.375002,22.26562 25.000002,33.00781 15.625,10.54687 34.76562,10.54687 20.11719,0 33.98438,-8.20312 14.0625,-8.20313 21.09375,-21.67969 7.03125,-13.47656 7.03125,-28.90625 v -3.32031 H 176.2366 q -7.03125,0 -13.28125,-3.51563 -6.05469,-3.71093 -9.76563,-9.76562 -3.51562,-6.25 -3.51562,-13.47656 0,-7.03125 3.51562,-13.08594 3.71094,-6.05469 9.76563,-9.57031 6.25,-3.71094 13.28125,-3.71094 h 77.53906 q 16.60156,0 25.19531,8.78906 8.78906,8.59375 8.78906,25.19531 v 105.66407 q 0,8.39843 -4.29687,15.625 -4.10156,7.03125 -11.32813,11.32812 -7.22656,4.10156 -15.625,4.10156 -11.32812,0 -19.92187,-7.03125 -8.59375,-7.22656 -10.74219,-18.16406 l -2.14844,-10.74219 h -1.95312 q -13.47656,19.92188 -32.42188,29.6875 -18.94531,9.57032 -49.21875,9.57032 z"
     style="font-size:400px;font-family:Jellee;-inkscape-font-specification:'Jellee, Normal';fill:#005aff;fill-opacity:1"
     id="path40518" /><path
     d="m 428.18972,318.98499 q -32.8125,0 -58.98437,-14.0625 -25.97657,-14.0625 -40.82032,-39.64844 -14.64843,-25.78125 -14.64843,-59.57031 0,-33.20313 13.67187,-59.17969 13.86719,-25.97656 39.45313,-40.625 25.58593,-14.64844 59.76562,-14.64844 33.78906,0 58.59375,14.0625 24.80469,13.86719 37.69531,36.52344 12.89063,22.46094 12.89063,47.85156 0,18.16406 -7.22656,26.75781 -7.22657,8.39844 -25.58594,8.39844 H 385.02566 q 2.14844,18.75 14.0625,30.27344 11.91406,11.32812 30.66406,11.32812 11.32813,0 18.35938,-3.51562 7.22656,-3.71094 13.67187,-9.96094 4.88281,-4.88281 9.96094,-7.61719 5.27344,-2.92968 12.10937,-2.92968 8.00782,0 14.84375,4.10156 7.03125,4.10156 10.9375,11.32812 4.10157,7.03125 4.10157,15.42969 0,13.86719 -11.91407,24.02344 -10.9375,9.17969 -31.05468,15.42969 -19.92188,6.25 -42.57813,6.25 z m 35.9375,-137.69532 q -0.78125,-18.94531 -11.32812,-29.88281 -10.54688,-10.9375 -27.34375,-10.9375 -16.79688,0 -27.34375,10.9375 -10.54688,10.74219 -12.69532,29.88281 z"
     style="font-size:400px;font-family:Jellee;-inkscape-font-specification:'Jellee, Normal';fill:#005aff;fill-opacity:1"
     id="path40520" /></g><path
   id="path33773"
   style="font-size:40px;line-height:1.25;letter-spacing:0px;word-spacing:0px;fill:#005aff;fill-opacity:1;stroke:#005aff;stroke-width:3.3804;stroke-miterlimit:4;stroke-dasharray:none;stroke-opacity:1"
   d="m 291.41938,168.13262 c -3.37214,0.0436 -6.76546,0.65755 -9.85169,2.04592 -3.02011,1.33941 -5.72958,3.39569 -7.77067,5.99923 -2.31235,2.92154 -3.8552,6.41261 -4.63574,10.04657 -0.18079,0.82634 -0.32099,1.67472 -0.43167,2.49608 -0.23562,1.79329 -0.32141,3.58396 -0.30109,5.38689 0.0452,3.63358 0.5382,7.33927 1.82077,10.77299 0.26383,0.70499 0.5789,1.43301 0.91851,2.12563 0.0566,0.10985 0.1285,0.25887 0.19175,0.37945 1.31436,2.56138 3.15092,4.87965 5.47182,6.59954 0.60523,0.45557 1.27231,0.88429 1.91457,1.24445 0.317,0.17606 0.63461,0.3442 0.97369,0.50756 0.55381,0.26855 1.15555,0.5202 1.71258,0.72356 1.29587,0.47581 2.67546,0.81427 4.01909,1.01676 1.30367,0.19693 2.67055,0.27856 4.00837,0.25571 2.20523,-0.0378 4.45154,-0.28081 6.50345,-1.13646 2.07695,-0.88399 3.79525,-2.45658 5.10991,-4.26898 0.24009,-0.30622 0.4263,-0.65314 0.67815,-0.94908 0.27472,-0.27101 0.6808,-0.3067 1.04535,-0.2751 0.62358,0 1.24715,0 1.87069,0 0.29014,1.26663 0.47329,2.55718 0.80998,3.81288 0.46053,1.31887 1.79957,2.28096 3.20218,2.26189 1.10308,0.0226 2.21456,-0.49633 2.85754,-1.40215 0.51797,-0.69214 0.75062,-1.57573 0.6856,-2.43424 -0.002,-5.95527 0.01,-11.91075 -0.0117,-17.86589 -0.0407,-0.94851 -0.27794,-1.96626 -0.99425,-2.63893 -0.70781,-0.67177 -1.71846,-0.87621 -2.66416,-0.89547 -1.03579,-0.0305 -2.07216,0.005 -3.10817,-0.0106 -3.51068,0.002 -7.02201,-0.0125 -10.53228,0.0164 -1.23174,0.1335 -2.34816,1.18569 -2.41589,2.44722 -0.0732,0.89944 0.33082,1.82205 1.05739,2.36202 0.54585,0.43011 1.25932,0.59415 1.94429,0.54629 2.83534,4.5e-4 5.67068,0.001 8.50604,0.001 -0.004,1.78416 0.11245,3.60288 -0.35143,5.34595 -0.5904,2.43337 -1.95995,4.70643 -3.96524,6.22952 -1.71689,1.34917 -3.82514,2.17226 -5.99214,2.40744 -2.23958,0.28081 -4.57202,0.0911 -6.66715,-0.78614 -2.03108,-0.83026 -3.82016,-2.239 -5.09861,-4.02294 -1.78857,-2.4204 -2.82501,-5.32872 -3.30048,-8.28313 -0.4161,-2.54921 -0.47385,-5.14593 -0.3387,-7.72148 0.1722,-3.0101 0.72628,-6.04825 2.06296,-8.77299 1.01306,-2.07507 2.47025,-3.98077 4.4075,-5.26987 2.00716,-1.35539 4.42179,-2.07491 6.83998,-2.09774 2.07594,-0.0418 4.21016,0.32736 6.02456,1.37773 1.43804,0.82711 2.62593,2.04497 3.51011,3.44159 0.31639,0.48187 0.57274,1.01142 0.99772,1.4122 0.73309,0.74741 1.76908,1.23847 2.80932,1.25427 1.37163,0.0689 2.73148,-0.63012 3.51896,-1.74705 0.17237,-0.2385 0.31833,-0.49576 0.43805,-0.76448 0.0281,-0.0597 0.089,-0.21026 0.12283,-0.30828 0.27004,-0.73316 0.28795,-1.5372 0.13009,-2.29718 -0.15599,-0.81151 -0.5548,-1.57264 -1.1405,-2.15652 -0.84854,-0.96426 -1.81559,-1.82091 -2.85637,-2.57235 -0.16473,-0.11867 -0.38118,-0.27007 -0.57083,-0.39522 -1.48747,-0.99008 -3.11476,-1.76731 -4.81405,-2.31835 -0.23814,-0.0767 -0.53296,-0.16694 -0.79619,-0.23938 -1.14241,-0.31627 -2.31057,-0.5359 -3.487,-0.67879 -0.26112,-0.0309 -0.57897,-0.0655 -0.86272,-0.091 -0.32038,-0.0281 -0.64796,-0.0543 -0.94763,-0.0686 -0.34331,-0.0196 -0.66648,-0.0332 -1.02058,-0.041 -0.41222,-0.0116 -0.82465,-0.009 -1.23698,-0.008 z m 49.13336,0.52687 c -1.95403,0.0149 -3.92206,0.60797 -5.48671,1.79517 -0.89431,0.66326 -1.66581,1.49536 -2.24332,2.44837 -0.0455,0.0749 -0.13079,0.22151 -0.18824,0.32841 -0.48161,0.88674 -0.75471,1.86464 -1.09307,2.81044 -4.08067,11.81943 -8.16347,23.63839 -12.23674,35.46036 -0.37395,1.21225 -0.23463,2.59302 0.46776,3.66178 0.65313,1.03252 1.752,1.79847 2.97202,1.96242 1.13045,0.18012 2.36959,-0.0956 3.30073,-0.79272 0.69419,-0.51313 1.25201,-1.24589 1.52786,-2.07855 0.72864,-2.3511 1.48271,-4.69485 2.22131,-7.04307 0.14659,-0.46354 0.29329,-0.92706 0.43981,-1.39064 7.01125,0 14.02252,0 21.03377,0 0.9177,2.91516 1.80225,5.83733 2.74376,8.74496 0.59854,1.49163 2.12931,2.53746 3.72872,2.60272 1.24432,0.0877 2.55346,-0.38648 3.42581,-1.30043 1.03821,-1.05682 1.49589,-2.67029 1.08875,-4.10503 -0.21301,-0.84636 -0.54767,-1.62259 -0.81371,-2.45574 -4.04213,-11.70231 -8.0769,-23.40726 -12.12991,-35.10571 -0.11342,-0.2981 -0.27189,-0.64548 -0.44019,-0.95003 -0.62744,-1.14954 -1.53338,-2.14001 -2.60033,-2.89635 -0.14274,-0.0999 -0.34062,-0.23353 -0.51212,-0.33683 -1.50763,-0.94868 -3.30266,-1.37957 -5.07505,-1.35983 -0.0437,1e-4 -0.0873,2e-4 -0.13091,2.3e-4 z m -109.79794,0.55944 c -1.36358,0.0117 -2.72817,-0.0161 -4.09106,0.0254 -0.93924,0.0748 -1.9388,0.37092 -2.55601,1.12668 -0.62424,0.76494 -0.76963,1.79 -0.77353,2.74755 -0.0128,1.19244 0.003,2.38503 -0.005,3.57754 0.001,12.03062 -0.005,24.06137 0.009,36.09191 0.0781,2.01186 1.64146,3.85146 3.60991,4.26566 0.71838,0.15395 1.45149,0.13348 2.18182,0.0924 0.91112,-0.076 1.82929,-0.25284 2.66133,-0.64227 0.7868,-0.42095 1.3743,-1.14308 1.78901,-1.92011 0.37347,-0.712 0.52926,-1.52219 0.50223,-2.3226 6.8e-4,-4.34726 4.5e-4,-8.69463 4.5e-4,-13.04194 2.79368,0 5.58735,0 8.38102,0 2.74866,5.30235 5.48692,10.61041 8.2522,15.90392 0.82042,1.37306 2.48617,2.16937 4.0515,2.04698 1.68689,-0.0808 3.27592,-1.21715 3.87368,-2.80083 0.44381,-1.12371 0.39456,-2.42991 -0.14746,-3.51163 -0.32783,-0.67254 -0.69594,-1.32439 -1.03017,-1.99387 -1.83634,-3.53328 -3.68311,-7.06065 -5.50425,-10.60147 -0.20487,-0.48757 -0.076,-1.025 -0.12045,-1.53447 -0.009,-0.26127 0.18255,-0.48831 0.42614,-0.56262 2.04122,-0.9608 3.96482,-2.24403 5.44224,-3.96624 1.30621,-1.49251 2.25151,-3.29431 2.73935,-5.21662 0.51734,-2.02281 0.58266,-4.14486 0.33422,-6.21218 -0.22084,-1.65922 -0.70675,-3.29997 -1.56069,-4.74722 -0.0616,-0.10426 -0.1614,-0.27085 -0.24411,-0.39694 -1.06214,-1.66263 -2.56523,-3.02681 -4.29237,-3.97395 -2.51548,-1.40431 -5.37464,-2.09 -8.22987,-2.32585 -0.51733,-0.0412 -1.03337,-0.0734 -1.53652,-0.0896 -1.88577,-0.0361 -3.77211,-0.01 -5.65813,-0.0179 -2.83478,1e-4 -5.66957,1.9e-4 -8.50435,2.2e-4 z m 5.53453,5.93199 c 1.94949,0.009 3.89981,-0.0187 5.84869,0.0337 2.0891,0.1076 4.21745,0.58524 5.98706,1.74278 1.31933,0.868 2.24846,2.25955 2.65708,3.77553 0.45972,1.61009 0.49264,3.31603 0.28895,4.96942 -0.22774,1.60385 -0.86282,3.209 -2.05837,4.3378 -1.21559,1.1555 -2.82168,1.80279 -4.43714,2.16724 -1.58464,0.34559 -3.21853,0.37497 -4.83262,0.34172 -1.88685,-0.48237 -3.77377,-0.96445 -5.6606,-1.44692 0,-4.44412 0,-8.88824 0,-13.33235 -0.51025,-0.25217 -1.01804,-0.51096 -1.52909,-0.76277 -0.31763,-0.15835 -0.6353,-0.31663 -0.95295,-0.47495 0.92556,-0.44055 1.82936,-0.92596 2.76331,-1.34864 0.64189,-6.7e-4 1.28378,-0.001 1.92568,-0.003 z m 102.99002,1.75226 c 1.08133,0 2.16266,0 3.24399,0 0.947,3.6354 1.87229,7.27666 3.01605,10.84984 1.21748,3.89058 2.43498,7.78166 3.65493,11.67165 -5.64161,0 -11.28326,0 -16.92486,0 1.48907,-4.75872 2.98575,-9.51515 4.4703,-14.27522 0.79902,-2.73441 1.4978,-5.48218 2.18835,-8.24627 0.11709,0 0.23418,0 0.35124,0 z" /></g>
<g
   id="g6">
</g>
<g
   id="g8">
</g>
<g
   id="g10">
</g>
<g
   id="g12">
</g>
<g
   id="g14">
</g>
<g
   id="g16">
</g>
<g
   id="g18">
</g>
<g
   id="g20">
</g>
<g
   id="g22">
</g>
<g
   id="g24">
</g>
<g
   id="g26">
</g>
<g
   id="g28">
</g>
<g
   id="g30">
</g>
<g
   id="g32">
</g>
<g
   id="g34">
</g>
</svg>
